<svg id="Layer_1" data-name="Layer 1" xmlns="http://www.w3.org/2000/svg" viewBox="0 0 415.8 144"><defs><style>.cls-1{fill:#101a43;}.cls-2{fill:#253465;}.cls-3{fill:#8b9dd0;}.cls-4{fill:#4461ad;}.cls-5{fill:#253874;}.cls-6{fill:#273b84;}.cls-7{fill:#5f72b6;}.cls-8{fill:#262f6e;}.cls-9{fill:#1e2155;}.cls-10{fill:#4a72b8;}.cls-11{fill:#22429b;}.cls-12{fill:#e4e9f6;}.cls-13{fill:#4060ac;}.cls-14{fill:#23295f;}.cls-15{fill:#283171;}.cls-16{fill:#7790c9;}.cls-17{fill:#8b9bcf;}.cls-18{fill:#22418b;}.cls-19{fill:#2f59a3;}.cls-20{fill:#c7d1eb;}.cls-21{fill:#051930;}.cls-22{fill:#3165b0;}.cls-23{fill:#204199;}.cls-24{fill:#738ebf;}.cls-25{fill:#315fac;}.cls-26{fill:#4d64af;}.cls-27{fill:#5e87c5;}.cls-28{fill:#285ba6;}.cls-29{fill:#234093;}.cls-30{fill:#b3c2e4;}.cls-31{fill:#17224d;}.cls-32{fill:#718ac6;}.cls-33{fill:#1f419a;}.cls-34{fill:#263170;}.cls-35{fill:#4868b1;}.cls-36{fill:#859dd0;}.cls-37{fill:#243e90;}.cls-38{fill:#2b4ca0;}.cls-39{fill:#5a7ebf;}.cls-40{fill:#262b67;}.cls-41{fill:#27377b;}.cls-42{fill:#405a9e;}.cls-43{fill:#c3d2ec;}.cls-44{fill:#273777;}.cls-45{fill:#1c2052;}.cls-46{fill:#27489e;}.cls-47{fill:#4665af;}.cls-48{fill:#dae2f3;}.cls-49{fill:#4e6eb5;}.cls-50{fill:#253b7d;}.cls-51{fill:#829bce;}.cls-52{fill:#46a;}.cls-53{fill:#0e173e;}.cls-54{fill:#0d163d;}.cls-55{fill:#242c62;}.cls-56{fill:#9db2dc;}.cls-57{fill:#1d4596;}.cls-58{fill:#202358;}.cls-59{fill:#101943;}.cls-60{fill:#263675;}.cls-61{fill:#29479d;}.cls-62{fill:#21245b;}.cls-63{fill:#758fc9;}.cls-64{fill:#0a1332;}.cls-65{fill:#6580c0;}.cls-66{fill:#253f90;}.cls-67{fill:#121741;}.cls-68{fill:#8699ce;}.cls-69{fill:#222760;}.cls-70{fill:#bec8e7;}.cls-71{fill:#1b2153;}.cls-72{fill:#cbd8e5;}</style></defs><title>Artboard 1</title><polyline class="cls-1" points="20.84 36 41.62 0 0.05 0 20.84 36"/><polyline class="cls-2" points="62.41 36 83.19 0 41.62 0 62.41 36"/><polyline class="cls-3" points="103.98 36 124.76 0 83.19 0 103.98 36"/><polyline class="cls-4" points="145.55 36 166.33 0 124.76 0 145.55 36"/><polyline class="cls-5" points="187.12 36 207.9 0 166.33 0 187.12 36"/><polyline class="cls-6" points="228.69 36 249.47 0 207.9 0 228.69 36"/><polyline class="cls-7" points="270.25 36 291.04 0 249.47 0 270.25 36"/><polyline class="cls-8" points="311.82 36 332.61 0 291.04 0 311.82 36"/><polyline class="cls-9" points="353.39 36 374.18 0 332.61 0 353.39 36"/><polyline class="cls-10" points="394.96 36 415.75 0 374.18 0 394.96 36"/><polyline class="cls-11" points="20.84 108 41.62 72 0.05 72 20.84 108"/><polyline class="cls-1" points="62.41 108 83.19 72 41.62 72 62.41 108"/><polyline class="cls-12" points="103.98 108 124.76 72 83.19 72 103.98 108"/><polyline class="cls-13" points="145.55 108 166.33 72 124.76 72 145.55 108"/><polyline class="cls-14" points="187.12 108 207.9 72 166.33 72 187.12 108"/><polyline class="cls-15" points="228.69 108 249.47 72 207.9 72 228.69 108"/><polyline class="cls-16" points="270.25 108 291.04 72 249.47 72 270.25 108"/><polyline class="cls-15" points="311.82 108 332.61 72 291.04 72 311.82 108"/><polyline class="cls-1" points="353.39 108 374.18 72 332.61 72 353.39 108"/><polyline class="cls-17" points="394.96 108 415.75 72 374.18 72 394.96 108"/><polyline class="cls-18" points="374.18 72 353.39 108 394.96 108 374.18 72"/><polyline class="cls-19" points="332.61 72 311.82 108 353.39 108 332.61 72"/><polyline class="cls-20" points="291.04 72 270.25 108 311.82 108 291.04 72"/><polyline class="cls-21" points="249.47 72 228.69 108 270.25 108 249.47 72"/><polyline class="cls-22" points="207.9 72 187.12 108 228.69 108 207.9 72"/><polyline class="cls-23" points="166.33 72 145.55 108 187.12 108 166.33 72"/><polyline class="cls-24" points="124.76 72 103.98 108 145.55 108 124.76 72"/><polyline class="cls-25" points="83.19 72 62.41 108 103.98 108 83.19 72"/><polyline class="cls-26" points="41.62 72 20.84 108 62.41 108 41.62 72"/><polyline class="cls-27" points="415.75 0 394.96 36 415.75 36 415.75 0"/><polyline class="cls-28" points="374.18 0 353.39 36 394.96 36 374.18 0"/><polyline class="cls-29" points="332.61 0 311.82 36 353.39 36 332.61 0"/><polyline class="cls-30" points="291.04 0 270.25 36 311.82 36 291.04 0"/><polyline class="cls-31" points="249.47 0 228.69 36 270.25 36 249.47 0"/><polyline class="cls-32" points="207.9 0 187.12 36 228.69 36 207.9 0"/><polyline class="cls-33" points="166.33 0 145.55 36 187.12 36 166.33 0"/><polyline class="cls-34" points="124.76 0 103.98 36 145.55 36 124.76 0"/><polyline class="cls-35" points="83.19 0 62.41 36 103.98 36 83.19 0"/><polyline class="cls-36" points="41.62 0 20.84 36 62.41 36 41.62 0"/><polyline class="cls-37" points="41.62 72 62.41 36 20.84 36 41.62 72"/><polyline class="cls-38" points="83.19 72 103.98 36 62.41 36 83.19 72"/><polyline class="cls-37" points="124.76 72 145.55 36 103.98 36 124.76 72"/><polyline class="cls-39" points="166.33 72 187.12 36 145.55 36 166.33 72"/><polyline class="cls-40" points="207.9 72 228.69 36 187.12 36 207.9 72"/><polyline class="cls-41" points="249.47 72 270.25 36 228.69 36 249.47 72"/><polyline class="cls-37" points="291.04 72 311.82 36 270.25 36 291.04 72"/><polyline class="cls-42" points="332.61 72 353.39 36 311.82 36 332.61 72"/><polyline class="cls-43" points="374.18 72 394.96 36 353.39 36 374.18 72"/><polyline class="cls-44" points="415.75 72 415.75 36 394.96 36 415.75 72"/><polyline class="cls-45" points="41.62 144 62.41 108 20.84 108 41.62 144"/><polyline class="cls-37" points="83.19 144 103.98 108 62.41 108 83.19 144"/><polyline class="cls-46" points="124.76 144 145.55 108 103.98 108 124.76 144"/><polyline class="cls-47" points="166.33 144 187.12 108 145.55 108 166.33 144"/><polyline class="cls-48" points="207.9 144 228.69 108 187.12 108 207.9 144"/><polyline class="cls-49" points="249.47 144 270.25 108 228.69 108 249.47 144"/><polyline class="cls-50" points="291.04 144 311.82 108 270.25 108 291.04 144"/><polyline class="cls-51" points="332.61 144 353.39 108 311.82 108 332.61 144"/><polyline class="cls-52" points="374.18 144 394.96 108 353.39 108 374.18 144"/><polyline class="cls-53" points="394.96 108 374.18 144 415.75 144 394.96 108"/><polyline class="cls-2" points="353.39 108 332.61 144 374.18 144 353.39 108"/><polyline class="cls-54" points="311.82 108 291.04 144 332.61 144 311.82 108"/><polyline class="cls-55" points="270.25 108 249.47 144 291.04 144 270.25 108"/><polyline class="cls-56" points="228.69 108 207.9 144 249.47 144 228.69 108"/><polyline class="cls-57" points="187.12 108 166.33 144 207.9 144 187.12 108"/><polyline class="cls-58" points="145.55 108 124.76 144 166.33 144 145.55 108"/><polyline class="cls-59" points="103.98 108 83.19 144 124.76 144 103.98 108"/><polyline class="cls-60" points="62.41 108 41.62 144 83.19 144 62.41 108"/><polyline class="cls-61" points="20.84 108 0.05 144 41.62 144 20.84 108"/><polyline class="cls-62" points="394.96 36 374.18 72 415.75 72 394.96 36"/><polyline class="cls-63" points="353.39 36 332.61 72 374.18 72 353.39 36"/><polyline class="cls-64" points="311.82 36 291.04 72 332.61 72 311.82 36"/><polyline class="cls-65" points="270.25 36 249.47 72 291.04 72 270.25 36"/><polyline class="cls-66" points="228.69 36 207.9 72 249.47 72 228.69 36"/><polyline class="cls-67" points="187.12 36 166.33 72 207.9 72 187.12 36"/><polyline class="cls-68" points="145.55 36 124.76 72 166.33 72 145.55 36"/><polyline class="cls-69" points="103.98 36 83.19 72 124.76 72 103.98 36"/><polyline class="cls-70" points="62.41 36 41.62 72 83.19 72 62.41 36"/><polyline class="cls-71" points="20.84 36 41.62 72 0.05 72 20.84 36"/><polygon class="cls-44" points="0.05 36 0.05 72 20.84 36 0.05 36"/><polygon class="cls-26" points="0.05 108 0.05 144 20.84 108 0.05 108"/><polyline class="cls-72" points="415.75 72 394.96 108 415.75 108 415.75 72"/><polyline class="cls-26" points="415.75 144 415.75 108 394.96 108 415.75 144"/><polyline class="cls-27" points="0 0 0.05 36 20.79 36 0 0"/><polyline class="cls-72" points="0.05 72 0.11 108 20.84 108 0.05 72"/></svg>